<svg id="Layer_1" data-name="Layer 1" xmlns="http://www.w3.org/2000/svg" viewBox="0 0 1366 2500"><defs><style>.cls-1{fill:#f05f2a;}.cls-2{fill:#21368f;}.cls-3{fill:#f5b52f;}</style></defs><title>Background</title><path class="cls-1" d="M80,2045.62c-48,21.06-108.23,73.69-98.32,134.62,5.82,35.76,36.1,76.38,70,81.32,42.42,6.19,51.95-49,119.93-65.89,52.17-13,67.66,14.3,111.94.4,66.29-20.81,112.77-107.41,89.53-149.63-22.61-41.09-103.22-25.59-111.51-54.3-10.6-36.73,118.75-71.07,112.34-125.36-4.19-35.47-65.45-71.9-117.22-66.51-41.53,4.32-65.32,34.34-80.17,53.07-13.37,16.87-44.54,56.19-32.25,95,13.23,41.79,67.28,52.62,64.32,69.11C205.41,2035.31,142.69,2018.12,80,2045.62Z"/><path class="cls-2" d="M863.74,1617.87c-97.64-33.32-248.79-4.82-240.15-69.15C634.7,1466,886.06,1394.31,975,1486.78c36.1,37.53,12.46,67.82,51.56,162.79,52.79,128.24,119.06,129.32,143.82,233.38,4.17,17.53,29.47,131.73-32.56,194.48-74.16,75-224.11,26.94-229.3-10.08-5.13-36.67,134-45.49,164.17-122.45,13.57-34.57,7.41-82.09,2.71-95.08-22.15-61.23-83.37-51.14-130.25-69.15C881.38,1756.17,939.72,1643.81,863.74,1617.87Z"/><path class="cls-3" d="M1087.16,425.16c37.71,54.46,222.82,59.62,252-.73,15.11-31.23-9.92-83.37-51.7-104.66-66.36-33.81-149,23.49-181.33-7.1-23.64-22.34,14.91-58.1-8.62-95.59-29.65-47.26-140.21-69-175.1-34.48-30.61,30.3-5.54,106.43,44.33,140.57,37.27,25.51,79.25,21.32,103.8,56.33C1084.83,399.9,1076.27,409.42,1087.16,425.16Z"/><path class="cls-2" d="M668,550.68c-6.62,79.65-94.5,105.48-87.16,149.34,7.29,43.6,98.13,41.76,105.13,83.52,8.38,50-115.44,90.4-106.46,128.5,6.81,28.88,89,52.67,145.63,16.76,47.89-30.38,69-98.16,48.2-133.74-14.38-24.56-38.58-16.39-58-40.58-37-46,1.86-135.84,13.16-162,46.82-108.35,117-134.33,104.32-173.6-14.34-44.34-114.64-44.65-119.95-44.62-101.78.61-185.31,74.68-177.9,93.93,6.72,17.46,86.2-15.54,120.07,25.13C671.13,512.72,668.92,539.27,668,550.68Z"/><path class="cls-1" d="M289.13,444.95C233.56,493.61,98.64,467,75.55,414.21c-24.08-55.05,92.34-95.39,104.63-216.46,9.17-90.24-48-141.37-17.26-168.73,43.66-38.8,183.38,42.15,233.24-8.45,12.79-13,12-26.79,28.17-32.33,34.46-11.78,97.49,30.41,92.61,60-4.5,27.33-66,39.06-83.56,42.42C361.1,104.5,326,78.08,291.31,99.69c-30.27,18.84-34.08,57.92-35.47,72.12-7.19,73.81,59.68,98.35,62.62,182.23C319.09,372.1,320.67,417.33,289.13,444.95Z"/><path class="cls-3" d="M331.62,1463.09c21.63-63.28,9.25-151-35.15-180.17-43.52-28.57-55.73,4.93-119.6-20.06C108.94,1236.28,44,1188.94,71.19,1149.67c11.28-16.28,22.39-29.2,73-49.33,25.09-10,59.53-23.69,65.22-48,6.68-28.54-27.08-68.1-67-81.89-75.28-26-145.51,49-181.39,20-18.85-15.18-16.46-49.55-7.95-70.37,24-58.6,126.19-82.18,200.89-58.85,63.18,19.73,94.34,70.51,114.36,102.84,18.27,29.5,54.4,87.84,33.73,141-12.44,32-35.39,36.28-33.77,57,2.74,35.2,69.48,32.42,118.62,84.72,53.24,56.66,47.89,137.61,46.63,156.64-2.16,32.71-3.06,108.51-52,134.27-24.79,13-60.9,12.9-71.64-2.62S319.62,1498.19,331.62,1463.09Z"/><path class="cls-1" d="M952,1218c55.34-1.42,120.2-38.25,129-78,13.44-60.73-107.12-114.33-92-150,11-25.92,89-31.51,146-1,43.27,23.16,9.14,62.6,73,129,44.92,46.71,85.44,37.53,116,60,34,25,87.8,112.72,47,171-28.14,40.2-105.54,48.18-130,21-16.65-18.5-1.52-45.25-17-124-6-30.28-10.2-36.56-15-41-26.55-24.55-89.87-11-131,21-48.44,37.7-34.6,76.48-74,97-52,27.08-140.56-6.94-150-51-3.66-17.07,4.08-37.82,18-49C892.9,1206.21,918,1218.87,952,1218Z"/><path class="cls-3" d="M768,2355c-48.69-78.9-42.06-111.1-70-123-37.86-16.12-95.86,23.45-127,60-48.78,57.26-28.51,103.42-66,127-61.6,38.75-167-54-186-31-14.64,17.68,34.09,89.08,92,141,36.55,32.77,146.33,131.19,244,100,71.6-22.86,71.88-56.16,158-94,81.43-35.78,169.59-11.79,198-3,122.89,38,132.57,89.18,192,78,72.65-13.67,135.36-155.82,92-222-50.15-76.53-230.83-34.17-252-29-112.27,27.44-173,90-227,59C801.86,2409.87,790.57,2391.58,768,2355Z"/></svg>